name Walk9_EMG.mot
datacolumns 17
datarows 25
range 3.30300000 3.32700000
endheader
                time	            vasmed_r	            vaslat_r	            recfem_r	               gra_r	               sar_r	            tibant_r	           perlong_r	            addmag_r	           semimem_r	          bicfemlh_r	            gasmed_r	            gaslat_r	               sol_r	               tfl_r	              gmed_r	              gmax_r	
          3.30300000	          0.12010557	          0.12198159	          0.17009325	          0.91106675	          0.06735281	          0.10667268	          0.17992909	          0.34938912	          0.21433246	          0.07649296	          0.02336370	          0.11023466	          0.00424361	          0.14991842	          0.15582958	          0.15615995	
          3.30400000	          0.12043303	          0.12163348	          0.17039081	          0.89708452	          0.07229390	          0.10747396	          0.17118206	          0.35083843	          0.21177959	          0.07647825	          0.02531395	          0.10601953	          0.00243760	          0.14974097	          0.15644053	          0.15682554	
          3.30500000	          0.12076118	          0.12127159	          0.17067202	          0.88238649	          0.07766075	          0.10850544	          0.16258720	          0.35241140	          0.20915298	          0.07645177	          0.02742447	          0.10198994	          0.00092510	          0.14957209	          0.15704699	          0.15753676	
          3.30600000	          0.12107743	          0.12089294	          0.17095105	          0.86703160	          0.08342486	          0.10981055	          0.15415732	          0.35413895	          0.20646269	          0.07641188	          0.02968218	          0.09815159	          0.00000000	          0.14942266	          0.15764897	          0.15828780	
          3.30700000	          0.12137036	          0.12049465	          0.17124461	          0.85107814	          0.08955464	          0.11143105	          0.14590448	          0.35605673	          0.20371728	          0.07635675	          0.03207370	          0.09450978	          0.00000000	          0.14930752	          0.15824523	          0.15907450	
          3.30800000	          0.12162960	          0.12007349	          0.17157308	          0.83458282	          0.09601763	          0.11340682	          0.13784021	          0.35819960	          0.20092404	          0.07628472	          0.03458565	          0.09106815	          0.00000000	          0.14924247	          0.15883367	          0.15989397	
          3.30900000	          0.12184550	          0.11962629	          0.17196350	          0.81760095	          0.10278575	          0.11577604	          0.12997544	          0.36059658	          0.19808997	          0.07619498	          0.03720499	          0.08782878	          0.00000000	          0.14924167	          0.15941118	          0.16074350	
          3.31000000	          0.12200886	          0.11915036	          0.17244935	          0.80018642	          0.10984257	          0.11857372	          0.12232025	          0.36326888	          0.19522281	          0.07608802	          0.03991897	          0.08479296	          0.00000000	          0.14931603	          0.15997361	          0.16162070	
          3.31100000	          0.12211098	          0.11864351	          0.17306557	          0.78239106	          0.11718632	          0.12183156	          0.11488359	          0.36623059	          0.19233109	          0.07596540	          0.04271487	          0.08196148	          0.00000000	          0.14947312	          0.16051641	          0.16252443	
          3.31200000	          0.12214384	          0.11810376	          0.17384375	          0.76426395	          0.12482626	          0.12557902	          0.10767339	          0.36948860	          0.18942344	          0.07582880	          0.04557980	          0.07933434	          0.00000000	          0.14971777	          0.16103521	          0.16345530	
          3.31300000	          0.12210033	          0.11752958	          0.17481120	          0.74585115	          0.13277704	          0.12984125	          0.10069694	          0.37304157	          0.18650776	          0.07567930	          0.04850068	          0.07691081	          0.00000000	          0.15005257	          0.16152594	          0.16441517	
          3.31400000	          0.12197440	          0.11692041	          0.17599148	          0.72719574	          0.14105428	          0.13463429	          0.09396152	          0.37687985	          0.18359155	          0.07551728	          0.05146420	          0.07469014	          0.00000000	          0.15047835	          0.16198438	          0.16540571	
          3.31500000	          0.12176116	          0.11627675	          0.17740428	          0.70833832	          0.14967074	          0.13996226	          0.08747473	          0.38098665	          0.18068243	          0.07534288	          0.05445691	          0.07267166	          0.00000000	          0.15099461	          0.16240592	          0.16642678	
          3.31600000	          0.12145700	          0.11559978	          0.17906527	          0.68931793	          0.15863393	          0.14581773	          0.08124433	          0.38533866	          0.17778816	          0.07515631	          0.05746544	          0.07085429	          0.00071544	          0.15159962	          0.16278543	          0.16747618	
          3.31700000	          0.12105950	          0.11489080	          0.18098627	          0.67017225	          0.16794785	          0.15218373	          0.07527774	          0.38990664	          0.17491621	          0.07495781	          0.06047650	          0.06923601	          0.00191174	          0.15229041	          0.16311732	          0.16855046	
          3.31800000	          0.12056734	          0.11415081	          0.18317562	          0.65093747	          0.17762010	          0.15903714	          0.06958182	          0.39465722	          0.17207371	          0.07474742	          0.06347686	          0.06781425	          0.00326079	          0.15306306	          0.16339564	          0.16964584	
          3.31900000	          0.11998041	          0.11338051	          0.18564018	          0.63164870	          0.18766660	          0.16635306	          0.06416327	          0.39955565	          0.16926827	          0.07452488	          0.06645373	          0.06658667	          0.00475018	          0.15391278	          0.16361485	          0.17075915	
          3.32000000	          0.11929968	          0.11258080	          0.18838851	          0.61234171	          0.19810614	          0.17410693	          0.05902904	          0.40456782	          0.16650886	          0.07428966	          0.06939562	          0.06555100	          0.00636760	          0.15483365	          0.16377093	          0.17188845	
          3.32100000	          0.11852679	          0.11175336	          0.19143200	          0.59305452	          0.20895132	          0.18227367	          0.05418649	          0.40966052	          0.16380521	          0.07404101	          0.07229301	          0.06470403	          0.00810094	          0.15581844	          0.16386165	          0.17303315	
          3.32200000	          0.11766387	          0.11090071	          0.19478430	          0.57382662	          0.22020580	          0.19082691	          0.04964309	          0.41480105	          0.16116644	          0.07377803	          0.07513790	          0.06404095	          0.00993814	          0.15685891	          0.16388577	          0.17419434	
          3.32300000	          0.11671354	          0.11002589	          0.19846069	          0.55469759	          0.23186763	          0.19974077	          0.04540535	          0.41995733	          0.15860006	          0.07349985	          0.07792317	          0.06355542	          0.01186710	          0.15794649	          0.16384189	          0.17537484	
          3.32400000	          0.11567885	          0.10913199	          0.20247580	          0.53570715	          0.24393444	          0.20899131	          0.04147776	          0.42509843	          0.15611168	          0.07320562	          0.08064273	          0.06324011	          0.01387575	          0.15907302	          0.16372825	          0.17657803	
          3.32500000	          0.11456322	          0.10822152	          0.20683989	          0.51689497	          0.25640828	          0.21855537	          0.03786250	          0.43019426	          0.15370503	          0.07289446	          0.08329198	          0.06308715	          0.01595223	          0.16023104	          0.16354315	          0.17780652	
          3.32600000	          0.11337041	          0.10729634	          0.21155852	          0.49829867	          0.26929595	          0.22840828	          0.03456009	          0.43521449	          0.15138217	          0.07256524	          0.08586765	          0.06308863	          0.01808508	          0.16141343	          0.16328512	          0.17906176	
          3.32700000	          0.11210432	          0.10635784	          0.21663506	          0.47995252	          0.28260576	          0.23852233	          0.03157021	          0.44012766	          0.14914368	          0.07221685	          0.08836680	          0.06323712	          0.02026311	          0.16261282	          0.16295330	          0.18034411	
